<?xml version="1.0" encoding="utf-8"?>
<!-- Generator: Adobe Illustrator 24.0.0, SVG Export Plug-In . SVG Version: 6.00 Build 0)  -->
<svg version="1.1" id="Layer_1" xmlns="http://www.w3.org/2000/svg" xmlns:xlink="http://www.w3.org/1999/xlink" x="0px" y="0px"
	 viewBox="0 0 800 800" style="enable-background:new 0 0 800 800;" xml:space="preserve">
<title>cut</title>
<path d="M263.6,438.3h-3.1c-32.8,0-68,15.6-94.5,41.4c-27.4,25-46.1,58.6-46.1,92.2c0,38.3,27.4,61.7,64.9,61.7
	c32,0,68-16.4,95.3-41.4c26.6-25.8,45.3-58.6,45.3-92.2c0-3.9,0-9.4-0.8-13.3l25-21.9l245.3,125.8c3.9,1.6,7.8,3.1,11.7,3.1
	c5.5,0,15.6-3.1,26.6-4.7c10.2-2.4,21.1-4.7,27.3-5.5c11-1.6,19.5-11.7,19.5-22.6c0-7.8-3.9-14.9-11-19.5L465.3,400l203.9-141.4
	c7-4.7,11-11.7,11-19.5c0-10.9-8.6-21.9-19.5-23.4c-3.1,0-7-0.8-11.7-2.4c-9.4-2.3-21.9-3.9-31.3-5.5s-16.4-1.6-22.7,1.6
	c-1.6,0.8-6.3,3.1-14.8,7c-7.8,3.9-18,9.4-29.7,15.6c-11.7,6.3-25,12.5-39.1,20.3c-14.1,7-30.5,14.9-44.5,22.6
	c-29.7,14.9-58.6,29.7-80.5,40.6c-10.9,5.5-20.3,11-27.3,14.1c-6.3,3.1-9.4,5.5-9.4,5.5l-25-22.6c0.8-3.9,0.8-8.6,0.8-12.5
	c0-33.6-18.8-67.2-45.3-92.2c-27.3-25-63.3-41.4-95.3-41.4c-37.5,0-64.9,23.4-64.9,61.7c0,32.8,18.8,66.4,46.9,92.2
	c28.1,26.6,64.1,43.8,96.9,41.4c3.1,4.7,10.1,10.9,17.2,17.2c7,6.3,13.3,13.3,18,18v6.3c-4.7,4.7-10.1,10.1-18,17.2
	C273.8,426.6,267.6,433.6,263.6,438.3L263.6,438.3z M177.7,228.1v-2.4c2.4-0.8,4.7-0.8,7-0.8c18.8,0,39.1,11.7,52.4,22.6
	c6.3,5.5,14.1,14.8,19.5,24.2c6.3,9.4,11.7,20.3,11.7,28.9v1.6c-3.9,0.8-6.3,0.8-7.8,0.8c-18.8,0-37.5-11.7-51.6-23.4
	c-5.5-5.5-14.1-13.3-20.3-22.6C182.4,247.6,177.7,236.7,177.7,228.1L177.7,228.1z M291,443.7l32-31.3l-1.6-37.5l285.1-145.3l50,9.4
	L359.7,443.7l-13.3-7l-31.3,28.1C309.7,456.2,301.1,449.2,291,443.7L291,443.7z M301.1,365.6L291,354.7
	c10.1-3.9,18.8-10.9,24.2-19.5l12.5,10.9C316,351.6,305.8,354.7,301.1,365.6z M337.1,400c0,12.5,10.1,22.7,22.6,22.7
	c13.3,0,23.4-10.2,23.4-22.7c0-13.3-10.1-23.4-22.6-23.4C346.5,376.5,337.1,386.7,337.1,400z M384,455.5l60.1-41.4l212.5,146.9
	l-50,9.4L384,455.5z M178.5,571.9c0-17.2,11.7-36.7,28.9-50.8c17.2-14.1,37.5-25,53.1-25c2.4,0,4.7,0.8,6.3,0.8v1.6
	c0.8,0,0.8,0.8,0.8,1.6c0,17.2-11.7,35.9-28.9,50c-17.2,14-36.7,25-53.9,25h-3.1c-0.8-0.8-1.6-0.8-3.1-0.8V571.9L178.5,571.9z"/>
</svg>
